<svg transform="scale(1)" version="1.1" id="Layer_1" xmlns="http://www.w3.org/2000/svg" xmlns:xlink="http://www.w3.org/1999/xlink" x="0px" y="0px" viewBox="0 0 500 500" xml:space="preserve" class="show_show__wrapper__graphic__5Waiy "><title>React</title><style type="text/css">
	.st0{fill:#F2EBEB;}
	.st1{fill:#3299F5;}
	.st2{fill:#000001;}
	.st3{fill:#EA8383;}
	.st4{clip-path:url(#SVGID_2_);}
	.st5{fill:#A04040;}
	.st6{clip-path:url(#SVGID_4_);}
</style><g id="screen-3"><polygon class="st0" points="31.9,181.4 30.3,70.7 182.3,70.7 182.3,181.4 	"></polygon><rect class="st1" x="30.3" y="70.7" width="152.1" height="11.1"></rect><rect class="st1" x="45.7" y="105.2" width="22.3" height="2.1"></rect><path class="st2" d="M95.6,107.3c-7.1-0.2-17.7-0.4-18.9-0.1l-0.8-1.9c1.2-0.6,11.4-0.4,19.8-0.1L95.6,107.3z"></path><rect class="st1" x="103.6" y="104.9" width="9.9" height="2.1"></rect><rect class="st2" x="121.5" y="105.2" width="23.3" height="2.1"></rect><rect class="st1" x="151" y="105.2" width="5.2" height="2.1"></rect><rect class="st1" x="44.9" y="112.2" width="33" height="2.1"></rect><rect class="st1" x="85.5" y="112.2" width="47.7" height="2.1"></rect><rect class="st1" x="139.8" y="112.2" width="25.5" height="2.1"></rect><rect class="st2" x="44.9" y="117.8" width="19.1" height="2.1"></rect><path class="st1" d="M87.7,119.8c-7.1-0.3-15.1-0.4-16.1-0.1c0,0,0.1,0,0.1-0.1l-1-1.8c0.8-0.5,6.6-0.5,17.1-0.1L87.7,119.8z"></path><rect class="st2" x="94.5" y="117.5" width="8.5" height="2.1"></rect><rect class="st1" x="109.9" y="117.8" width="20" height="2.1"></rect><rect class="st2" x="135.1" y="117.8" width="4.4" height="2.1"></rect><rect class="st1" x="44.2" y="124.8" width="28.3" height="2.1"></rect><rect class="st1" x="78.9" y="124.8" width="40.9" height="2.1"></rect><rect class="st1" x="125.6" y="124.8" width="46.6" height="2.1"></rect><path class="st2" d="M99,140.8c-7.1-0.2-17.7-0.4-18.9-0.1l-0.8-1.9c1.2-0.6,11.4-0.4,19.8-0.1L99,140.8z"></path><rect class="st1" x="107" y="138.5" width="9.9" height="2.1"></rect><rect class="st1" x="124.9" y="138.8" width="23.3" height="2.1"></rect><rect class="st2" x="154.4" y="138.8" width="5.2" height="2.1"></rect><rect class="st1" x="80.7" y="145.7" width="47.7" height="2.1"></rect><rect class="st1" x="80" y="154.8" width="25.5" height="2.1"></rect><rect class="st2" x="112.7" y="154.8" width="47.7" height="2.1"></rect><rect class="st1" x="65.7" y="138.8" width="3.6" height="2.1"></rect><rect class="st1" x="65.7" y="145.7" width="3.6" height="2.1"></rect><rect class="st1" x="65.7" y="154.8" width="3.6" height="2.1"></rect><path class="st0" d="M170.9,73.8c0.8,0.2,1.5,0.5,2.2,0.9c1.3,0.8,2.4,1.8,3.3,2.9c0.5,0.6,0.8,1.3,1.1,2.1
		c-0.8-0.2-1.5-0.5-2.2-0.9c-0.6-0.4-1.2-0.8-1.8-1.3c-0.6-0.5-1.1-1-1.5-1.6C171.5,75.3,171.2,74.6,170.9,73.8z"></path><path class="st0" d="M171.4,79.7c0.2-0.7,0.4-1.4,0.8-2.1c0.7-1.2,1.7-2.3,2.8-3.2c0.6-0.4,1.3-0.8,2-1c-0.2,0.7-0.4,1.4-0.8,2.1
		c-0.7,1.2-1.7,2.3-2.8,3.2C172.8,79.2,172.1,79.5,171.4,79.7z"></path></g><g id="screen-2"><polygon class="st0" points="319.3,264 317.6,204.9 469.7,204.9 469.7,264 	"></polygon><path class="st1" d="M341.8,225.6c0,0-9.5,1.7-6.9,11.1s13,9.4,19.7,3.6S354.5,220.8,341.8,225.6z"></path><path class="st1" d="M422.9,243.9c-0.3,0-0.7,0-1-0.1c-1-0.3-1.8-1.1-2-2.2c-0.5-2.4,1-6.6,3.5-10.2c-1.2-1.9-2.8-3.4-4.8-4.4
		c-3-1.6-6,0.2-7.9,1.9c-1,1-2,2-2.8,3.2c1.2,2.7,1.3,5.7,0.5,8.6c-0.5,1.8-2.1,3.1-4,3.2l0,0c-0.9,0-1.8-0.6-2.1-1.4
		c-0.8-2.1,0.7-6.6,3.3-10.5c-0.7-1.5-1.7-2.8-3-3.9c-1.5-1.2-3.7-0.1-5.3,1c-1.8,1.3-3.4,2.8-4.8,4.6c0,0.6,0,1.3-0.1,1.9
		c-0.4,4.3-2,8.6-4.9,8.4c-0.8,0-1.5-0.6-1.7-1.3c-0.5-1.9,1.6-5.9,4.6-9.6c-0.2-3-1.1-5.6-3-5.8c-3.9-0.4-10.6,9.3-13.9,15.5
		l-1.8-0.9c0.9-1.8,9.4-17.3,15.9-16.6c2.7,0.3,4,2.8,4.5,5.7c1.3-1.4,2.8-2.7,4.3-3.8c3.7-2.4,6-1.6,7.2-0.6c1.2,1,2.2,2.2,3,3.6
		c0.7-0.9,1.5-1.8,2.4-2.6c3.4-3.1,7-3.8,10.2-2.2c2.1,1,3.8,2.6,5.2,4.5c0.8-1,1.8-2,2.8-2.9c3.2-2.7,6.5-3.6,9.4-2.4
		c3.2,1.3,5.2,3.2,6.2,5.6c0.8,2.2,0.8,4.6-0.1,6.7L441,236c0.7-1.7,0.7-3.5,0.1-5.2c-0.8-1.9-2.5-3.4-5.1-4.5s-5.5,0.5-7.3,2
		c-1.1,1-2.1,2-3,3.2c1.5,2.9,1.8,6.3,0.8,9.4C425.9,242.9,424.5,243.9,422.9,243.9z M424.4,233.5c-1.9,3-2.9,6.1-2.5,7.7
		c0.1,0.6,0.4,0.6,0.5,0.7c1.2,0.3,1.9-0.7,2.3-1.6C425.4,238,425.3,235.6,424.4,233.5z M406.5,234.2c-1.8,3.2-2.7,6.4-2.3,7.4
		c0.1,0.1,0.1,0.1,0.2,0.1c1,0,1.7-0.6,2.1-1.9C407.1,238.1,407.1,236.1,406.5,234.2L406.5,234.2z M390.3,236.6
		c-1.5,2.4-2.5,4.4-2.5,5.2C388.8,241.6,389.9,239.6,390.3,236.6L390.3,236.6z"></path><rect class="st1" x="438.4" y="241.2" transform="matrix(0.6269 -0.7791 0.7791 0.6269 -24.1823 433.9599)" width="5.2" height="2"></rect><path class="st1" d="M327.8,194.5c-0.5-1.2-1-2.4-1.3-3.6c-0.3-1.2-0.6-2.5-0.8-3.7c-0.2-1.2-0.3-2.5-0.3-3.8c0-1.3,0-2.6,0.2-3.9
		c0.6,1.2,1,2.4,1.3,3.6c0.3,1.2,0.6,2.5,0.7,3.7c0.2,1.2,0.3,2.5,0.3,3.8C328.1,191.9,328,193.2,327.8,194.5z"></path><path class="st1" d="M319.2,197.4c-1.1-0.7-2.1-1.4-3-2.3c-1.8-1.7-3.5-3.5-4.9-5.6c-0.7-1-1.3-2.1-1.9-3.3c1.1,0.7,2.1,1.4,3,2.3
		c1.8,1.7,3.5,3.5,4.9,5.6C318.1,195.1,318.7,196.2,319.2,197.4z"></path><path class="st1" d="M310.6,200.6c-0.6,0.1-1.2,0.1-1.8-0.1c-0.5-0.1-1-0.3-1.5-0.6c-0.5-0.3-0.9-0.6-1.3-1c-0.4-0.4-0.8-0.9-1-1.5
		c0.6-0.1,1.2-0.1,1.8,0.1c0.5,0.1,1.1,0.3,1.5,0.6c0.5,0.3,0.9,0.6,1.3,1C310,199.6,310.3,200.1,310.6,200.6z"></path></g><g id="case"><path class="st2" d="M98.9,327.6c-7.8-6.2-12.2,8-12.2,8c-1.4-11.2-14.2-16.8-14.2-4.4s11.4,17.6,11.4,17.6c-5.6,3.6-4.8,23-4.8,23
		l3.3-0.4c0,0-2.1-10.4,0-16s4.4-5.6,4.4-5.6c2.7,5.6,2.7,19,2.7,19s-1.8,7.8,1.2,1.4s-3-21.4-3-21.4
		C91.5,348.8,106.7,333.8,98.9,327.6z M78.9,330.8c4-0.6,6,15.2,6,15.2C79,344.6,74.9,331.4,78.9,330.8z M87.9,346
		c-1.2-6.9,5.6-16.6,8-13S87.9,346,87.9,346L87.9,346z"></path><polygon class="st1" points="97.3,366.7 101.1,351.7 97.3,349.8 92,366.7 	"></polygon><polygon class="st3" points="101.1,345.3 97.3,349.8 101.1,351.7 	"></polygon><path class="st1" d="M99.7,347l1.3,0.6c0,0,0.7-2.8,0-2.5S99.7,347,99.7,347z"></path><path class="st1" d="M68.9,366.7c0,0-7.5-28.6-7.5-29.9s6.8-2.6,6.8-2.6l9.1,32.6H68.9z"></path><rect class="st2" x="68.9" y="334.3" transform="matrix(0.9588 -0.2842 0.2842 0.9588 -96.8446 34.1806)" width="1" height="33.1"></rect><polygon class="st1" points="71.1,416.4 62.9,366.7 101.8,366.7 96.8,414.7 	"></polygon><g><defs><polygon id="SVGID_1_" points="71.1,416.4 62.9,366.7 101.8,366.7 96.8,414.7 			"></polygon></defs><clipPath id="SVGID_2_"><use xlink:href="#SVGID_1_" style="overflow: visible;"></use></clipPath><g class="st4"><path class="st0" d="M166.3,435.6h-0.1L3,384.3c-0.3-0.1-0.4-0.4-0.3-0.6c0,0,0,0,0,0c0.1-0.3,0.3-0.4,0.6-0.3c0,0,0,0,0,0
				l163.2,51.4c0.3,0.1,0.4,0.3,0.3,0.6c0,0,0,0,0,0C166.8,435.5,166.5,435.7,166.3,435.6z"></path><path class="st0" d="M169.6,424.1h-0.1L5.8,375.8c-0.3-0.1-0.4-0.4-0.3-0.6c0.1-0.3,0.4-0.4,0.6-0.3l163.7,48.3
				c0.3,0.1,0.4,0.4,0.3,0.6C170,424,169.8,424.1,169.6,424.1z"></path><path class="st0" d="M172.7,413.4c0,0-0.1,0-0.1,0l-164.1-47c-0.3-0.1-0.4-0.4-0.4-0.6c0.1-0.3,0.4-0.4,0.6-0.4l164.1,47
				c0.3,0,0.5,0.3,0.4,0.6C173.2,413.2,173,413.4,172.7,413.4L172.7,413.4z"></path><path class="st0" d="M175.6,403.2c0,0-0.1,0-0.1,0L11,357.2c-0.3-0.1-0.4-0.4-0.4-0.6c0.1-0.3,0.4-0.4,0.6-0.4l164.5,46
				c0.3,0.1,0.4,0.4,0.4,0.6C176,403,175.8,403.2,175.6,403.2z"></path><path class="st0" d="M178.7,392.2h-0.1L13.3,349.5c-0.3-0.1-0.4-0.3-0.4-0.6s0.3-0.4,0.6-0.4l165.3,42.7c0.3,0,0.5,0.3,0.4,0.6
				S179,392.2,178.7,392.2L178.7,392.2z"></path><path class="st0" d="M181.4,382.9h-0.1L15.7,341.2c-0.3-0.1-0.4-0.3-0.4-0.6c0,0,0,0,0,0c0.1-0.3,0.3-0.4,0.6-0.4c0,0,0,0,0,0
				l165.6,41.6c0.3,0.1,0.4,0.3,0.4,0.6c0,0,0,0,0,0C181.9,382.7,181.7,382.9,181.4,382.9z"></path><path class="st0" d="M183.1,377H183L17.2,335.9c-0.3-0.1-0.4-0.3-0.4-0.6c0.1-0.3,0.3-0.4,0.6-0.4c0,0,0,0,0,0l165.8,41
				c0.3,0.1,0.4,0.3,0.4,0.6c0,0,0,0,0,0C183.6,376.8,183.4,377,183.1,377z"></path><path class="st0" d="M184.6,371.9h-0.1L19.1,329.2c-0.3-0.1-0.4-0.3-0.4-0.6s0.3-0.4,0.6-0.4l165.3,42.7c0.3,0.1,0.4,0.3,0.4,0.6
				c0,0,0,0,0,0C185,371.7,184.8,371.9,184.6,371.9z"></path><path class="st0" d="M34.5,433.8h-0.1c-0.3-0.1-0.4-0.3-0.3-0.6c0,0,0,0,0,0l39.6-138.3c0.1-0.3,0.4-0.4,0.6-0.3l0,0
				c0.3,0.1,0.4,0.3,0.3,0.6c0,0,0,0,0,0L34.9,433.4C34.9,433.6,34.7,433.7,34.5,433.8z"></path><path class="st0" d="M26.1,431.1H26c-0.3-0.1-0.4-0.4-0.3-0.6l40.8-136c0.1-0.3,0.4-0.4,0.6-0.4c0.3,0.1,0.4,0.4,0.4,0.6
				l-40.7,136C26.6,431,26.3,431.2,26.1,431.1z"></path><path class="st0" d="M16.9,428.5h-0.1c-0.3-0.1-0.4-0.3-0.4-0.6c0,0,0,0,0,0l30.2-105.7c0.1-0.3,0.4-0.4,0.6-0.4
				c0.3,0.1,0.4,0.4,0.4,0.6L17.4,428.1C17.3,428.4,17.1,428.5,16.9,428.5z"></path><path class="st0" d="M7.9,426H7.8c-0.3-0.1-0.4-0.3-0.4-0.6c0,0,0,0,0,0l29.2-106c0.1-0.3,0.4-0.4,0.6-0.4
				c0.3,0.1,0.4,0.4,0.3,0.6l-29.3,106C8.3,425.8,8.1,426,7.9,426z"></path><path class="st0" d="M0.4,423.8H0.3c-0.3-0.1-0.4-0.3-0.4-0.6c0,0,0,0,0,0l26-106.9c0.1-0.3,0.3-0.4,0.6-0.4
				c0.3,0.1,0.4,0.3,0.4,0.6l-26,106.8C0.8,423.6,0.6,423.8,0.4,423.8z"></path><path class="st0" d="M-7.7,421.4h-0.1c-0.3-0.1-0.4-0.3-0.4-0.6c0,0,0,0,0,0l25-107.1c0.1-0.3,0.3-0.4,0.6-0.4
				c0.3,0.1,0.4,0.3,0.4,0.6l-25,107.1C-7.3,421.3-7.5,421.5-7.7,421.4z"></path><path class="st0" d="M-12.9,419.9L-12.9,419.9c-0.3-0.1-0.5-0.3-0.4-0.6c0,0,0,0,0,0L11,312c0.1-0.3,0.3-0.4,0.6-0.4c0,0,0,0,0,0
				c0.3,0.1,0.4,0.3,0.4,0.6c0,0,0,0,0,0l-24.5,107.3C-12.5,419.8-12.7,419.9-12.9,419.9z"></path><path class="st0" d="M-19.5,418.1h-0.1c-0.3-0.1-0.4-0.3-0.4-0.6L6,310.6c0.1-0.3,0.3-0.4,0.6-0.4c0.3,0.1,0.4,0.3,0.4,0.6
				c0,0,0,0,0,0l-26,106.8C-19.1,417.9-19.3,418.1-19.5,418.1z"></path><path class="st0" d="M66.3,450h-0.2c-0.3-0.1-0.4-0.4-0.3-0.6l54-172.8c0.1-0.3,0.4-0.4,0.6-0.3c0,0,0,0,0,0
				c0.3,0.1,0.4,0.4,0.3,0.6c0,0,0,0,0,0l-54,172.8C66.7,449.9,66.5,450,66.3,450z"></path><path class="st0" d="M58,447.3h-0.1c-0.3-0.1-0.4-0.4-0.3-0.6l51-173.3c0.1-0.3,0.4-0.4,0.6-0.3c0.3,0.1,0.4,0.4,0.3,0.6
				L58.5,447C58.4,447.2,58.2,447.3,58,447.3z"></path><path class="st0" d="M48.8,444.7h-0.1c-0.3-0.1-0.4-0.4-0.3-0.6L98,270.4c0.1-0.3,0.4-0.4,0.6-0.4c0.3,0.1,0.4,0.4,0.4,0.6
				L49.3,444.3C49.2,444.5,49,444.7,48.8,444.7z"></path><path class="st0" d="M39.8,442.2c0,0-0.1,0-0.1,0c-0.3-0.1-0.4-0.3-0.3-0.6c0,0,0,0,0,0l48.7-174c0.1-0.3,0.4-0.4,0.6-0.4
				c0.3,0.1,0.4,0.4,0.4,0.6l-48.7,174C40.2,442,40,442.2,39.8,442.2z"></path><path class="st0" d="M32.3,439.9h-0.1c-0.3-0.1-0.4-0.3-0.4-0.6l45.5-174.9c0.1-0.3,0.3-0.4,0.6-0.4s0.4,0.3,0.4,0.6L32.7,439.6
				C32.7,439.8,32.5,439.9,32.3,439.9z"></path><path class="st0" d="M24.1,437.6H24c-0.3-0.1-0.4-0.3-0.4-0.6c0,0,0,0,0,0l44.5-175.2c0.1-0.3,0.3-0.4,0.6-0.4s0.4,0.3,0.4,0.6
				L24.6,437.2C24.6,437.4,24.4,437.6,24.1,437.6z"></path><path class="st0" d="M18.9,436.1h-0.1c-0.3-0.1-0.4-0.3-0.4-0.6c0,0,0,0,0,0l43.9-175.3c0.1-0.3,0.3-0.4,0.6-0.4s0.4,0.3,0.4,0.6
				L19.4,435.7C19.4,435.9,19.2,436.1,18.9,436.1z"></path><path class="st0" d="M12.4,434.2h-0.1c-0.3-0.1-0.4-0.3-0.4-0.6c0,0,0,0,0,0l45.5-174.9c0.1-0.3,0.3-0.4,0.6-0.4s0.4,0.3,0.4,0.6
				L12.9,433.8C12.8,434.1,12.6,434.2,12.4,434.2z"></path><path class="st0" d="M161.5,362.9c0,0-0.1,0-0.1,0L27.1,319.8c-0.3-0.1-0.4-0.4-0.3-0.6c0.1-0.3,0.4-0.4,0.6-0.3l134.2,43.1
				c0.3,0.1,0.4,0.4,0.3,0.6c0,0,0,0,0,0C161.9,362.7,161.7,362.9,161.5,362.9z"></path><path class="st0" d="M164.8,351.3h-0.1l-134.8-40c-0.3-0.1-0.4-0.3-0.3-0.6c0,0,0,0,0,0c0.1-0.3,0.4-0.4,0.6-0.3l134.8,40
				c0.3,0.1,0.4,0.4,0.3,0.6C165.2,351.2,165,351.3,164.8,351.3z"></path><path class="st0" d="M167.9,340.6c0,0-0.1,0-0.1,0L32.5,301.9c-0.3-0.1-0.4-0.3-0.3-0.6c0,0,0,0,0,0c0.1-0.3,0.3-0.4,0.6-0.3
				c0,0,0,0,0,0L168,339.6c0.3,0.1,0.4,0.4,0.3,0.6C168.3,340.4,168.1,340.6,167.9,340.6z"></path><path class="st0" d="M170.8,330.4h-0.1L35.1,292.7c-0.3-0.1-0.4-0.3-0.3-0.6c0.1-0.3,0.4-0.4,0.6-0.4l135.6,37.7
				c0.3,0.1,0.4,0.4,0.4,0.6C171.2,330.3,171,330.4,170.8,330.4z"></path><path class="st0" d="M173.9,319.4h-0.1L37.4,285c-0.3-0.1-0.4-0.3-0.4-0.6c0,0,0,0,0,0c0.1-0.3,0.3-0.4,0.6-0.4c0,0,0,0,0,0
				l136.4,34.4c0.3,0,0.5,0.3,0.4,0.6S174.2,319.5,173.9,319.4L173.9,319.4z"></path><path class="st0" d="M176.6,310.1h-0.1L39.8,276.7c-0.3-0.1-0.4-0.3-0.4-0.6c0,0,0,0,0,0c0.1-0.3,0.3-0.4,0.6-0.4c0,0,0,0,0,0
				l136.7,33.4c0.3,0,0.5,0.3,0.4,0.6C177.2,309.9,176.9,310.1,176.6,310.1L176.6,310.1z"></path><path class="st0" d="M178.3,304.2h-0.1L41.3,271.4c-0.3-0.1-0.4-0.3-0.4-0.6c0.1-0.3,0.3-0.4,0.6-0.4l136.9,32.8
				c0.3,0.1,0.4,0.3,0.4,0.6c0,0,0,0,0,0C178.8,304,178.6,304.2,178.3,304.2z"></path><path class="st0" d="M179.8,299.1h-0.1L43.2,264.7c-0.3-0.1-0.4-0.3-0.4-0.6c0,0,0,0,0,0c0.1-0.3,0.3-0.4,0.6-0.4c0,0,0,0,0,0
				l136.4,34.4c0.3,0,0.5,0.3,0.4,0.6S180.1,299.2,179.8,299.1L179.8,299.1z"></path><path class="st0" d="M131.8,472.3h-0.1c-0.3-0.1-0.4-0.4-0.3-0.6l54-172.8c0.1-0.3,0.3-0.4,0.6-0.3c0,0,0,0,0,0
				c0.3,0.1,0.4,0.4,0.3,0.6l-54,172.8C132.2,472.2,132,472.3,131.8,472.3z"></path><path class="st0" d="M123.5,469.6h-0.1c-0.3-0.1-0.4-0.3-0.3-0.6l51-173.3c0.1-0.3,0.4-0.4,0.6-0.4c0.3,0.1,0.4,0.4,0.4,0.6
				l-51,173.2C123.9,469.5,123.7,469.6,123.5,469.6z"></path><path class="st0" d="M114.3,467c0,0-0.1,0-0.1,0c-0.3-0.1-0.4-0.4-0.3-0.6l49.7-173.7c0.1-0.3,0.3-0.4,0.6-0.3c0,0,0,0,0,0
				c0.3,0.1,0.4,0.4,0.3,0.6l-49.7,173.6C114.7,466.8,114.5,467,114.3,467z"></path><path class="st0" d="M105.3,464.5h-0.1c-0.3-0.1-0.4-0.4-0.3-0.6l48.7-174c0.1-0.3,0.4-0.4,0.6-0.4c0.3,0.1,0.4,0.4,0.3,0.6
				l-48.7,174C105.7,464.3,105.5,464.5,105.3,464.5z"></path><path class="st0" d="M97.8,462.2h-0.1c-0.3-0.1-0.4-0.3-0.4-0.6c0,0,0,0,0,0l45.5-174.9c0.1-0.3,0.3-0.4,0.6-0.4s0.4,0.3,0.4,0.6
				L98.2,461.9C98.2,462.1,98,462.2,97.8,462.2z"></path><path class="st0" d="M89.7,459.9c0,0-0.1,0-0.1,0c-0.3-0.1-0.4-0.3-0.4-0.6l44.5-175.1c0.1-0.3,0.3-0.4,0.6-0.4
				c0.3,0.1,0.4,0.3,0.4,0.6L90.1,459.5C90.1,459.7,89.9,459.9,89.7,459.9z"></path><path class="st0" d="M84.4,458.4h-0.1c-0.3-0.1-0.4-0.3-0.4-0.6c0,0,0,0,0,0l43.9-175.3c0.1-0.3,0.3-0.4,0.6-0.4s0.4,0.3,0.4,0.6
				L84.9,458C84.9,458.2,84.7,458.4,84.4,458.4z"></path><path class="st0" d="M77.9,456.5h-0.1c-0.3-0.1-0.4-0.3-0.4-0.6L122.9,281c0.1-0.3,0.3-0.4,0.6-0.4s0.4,0.3,0.4,0.6L78.4,456.1
				C78.3,456.4,78.1,456.5,77.9,456.5z"></path></g></g></g><g id="character"><g id="character-2"><path class="st2" d="M283.7,262c-2.9-5.2-6.1-9.3-9.6-11.8l0,0c-6.5-4.5-14-3.6-22.8,5.5l-15,0.2c0,0-13.2-12.8-28.1,0
			c-0.9,0.8-1.6,1.7-2.2,2.7c-16,20-112.1,137.3-84.1,149.4c26.2,11.4,72.9,2.3,98.9,0l24.1-1.2c42-0.5,101.6,10.8,123,1.5
			C393.2,397.4,312,297.2,283.7,262z"></path><path class="st3" d="M257.5,219.2V264c0,0-8.5,14.7-12,16.7s-13-19.5-13-19.5l1.5-40.4L257.5,219.2z"></path><polygon class="st2" points="232.8,252.7 257.5,250 257.5,219.2 232.8,219.2 		"></polygon><path class="st3" d="M265.2,187.4c0,0,3.3-7.4,8.5-5.9s-0.4,19.8-7.1,18.3S265.2,187.4,265.2,187.4z"></path><path class="st3" d="M220.9,186.1c0,0-2.7-7.4-6.8-5.9s0.3,19.8,5.7,18.3S220.9,186.1,220.9,186.1z"></path><path class="st5" d="M243.6,245.9c0,0,6.7,8.3,12.3-2.1c8.8-16.3,11.5-24.7,12.5-58.6c0.5-18.3,2.9-30.6-2.1-37.3
			s-20.1-8.7-20.1-8.7s-18-24.4-33.7-16.3s6.6,32.4,6.6,32.4s-1.4,22.1-0.4,27.6C218.6,182.8,220.1,257.3,243.6,245.9z"></path><path class="st3" d="M222.5,158.8c0,0-1.6,20.3-1.6,33.5s2.3,13.6,7.2,11.5s8.1-4.9,10.4-4.9l7.7,0.2c3.7,0.4,7.3,1.7,10.5,3.7
			c4.2,2.5,7.4,3.9,8.5,1.2s2-23.4-0.6-30.7s-4.3-16.2-4.3-20.5C260.3,152.8,233.9,165.1,222.5,158.8z"></path><path class="st2" d="M257.3,209.4c0.5,0.6,0.7,1.4,0.5,2.2c-0.2,0.8-0.6,1.5-1.3,2c-0.6,0.5-1.3,0.7-2.1,0.8c-0.4,0-0.7,0-1.1-0.1
			c-0.3-0.1-0.7-0.2-1-0.4c0.3-0.2,0.6-0.4,0.9-0.6c0.3-0.2,0.5-0.4,0.8-0.5c0.5-0.3,0.9-0.6,1.3-0.9
			C256.3,211.3,256.9,210.4,257.3,209.4z"></path><path class="st2" d="M249.2,171.3c0.6-0.9,1.4-1.6,2.4-2.1c1-0.5,2-0.9,3.1-1c1.2-0.1,2.3,0.1,3.3,0.6c1,0.5,1.8,1.4,2.2,2.5
			c-0.9-0.4-1.8-0.8-2.7-1c-0.9-0.2-1.7-0.2-2.6-0.1C253,170.4,251.1,170.8,249.2,171.3z"></path><path class="st2" d="M235.4,170.2c-1.7-0.5-3.5-0.9-5.2-1.1c-0.8-0.1-1.6,0-2.3,0.1c-0.9,0.2-1.7,0.6-2.5,1c0.3-1,1-1.9,1.9-2.4
			c1-0.5,2.1-0.8,3.1-0.7c1,0.1,2,0.5,2.9,1C234.2,168.6,234.9,169.3,235.4,170.2z"></path><path class="st5" d="M201.2,132.5c1.9,5,4.5,9.7,7.7,14c3.1,4.2,7.2,7.6,12.1,9.6c2.4,1,4.9,1.5,7.5,1.7l1,0.1c0.3,0,0.6,0,1,0
			c0.6,0,1.3,0,1.9-0.1c1.3-0.2,2.6-0.3,3.9-0.6c5.2-1.2,10.2-3.1,14.9-5.7c-4.4,3.3-9.3,5.7-14.6,7.2c-5.4,1.6-11.2,1.3-16.4-0.7
			c-2.6-1.1-5-2.6-7.1-4.4c-2.1-1.8-3.9-3.9-5.5-6.2C204.5,142.9,202.3,137.9,201.2,132.5z"></path><path class="st2" d="M231.4,197.4h-0.5c-5.8-0.4-11.1-3.7-13.8-8.9c-4.2-8.6,3.9-14.6,4-14.6l0.1-0.1c5.4-3,11.3-2,15.9,2.6
			s6,11.3,3.4,15.9C238.6,195.5,235.1,197.5,231.4,197.4z M222.2,175.5c-0.6,0.5-6.7,5.2-3.4,12.1c2.4,4.5,7,7.5,12.1,7.8
			c3.2,0.3,6.2-1.4,7.8-4.1c2.1-3.7,0.8-9.5-3.1-13.5S226.8,173,222.2,175.5z"></path><path class="st2" d="M255.6,197.7c-2.4,0.1-4.7-0.8-6.4-2.4c-2.9-2.7-4.1-6.6-3.2-11c1.2-5.8,5.4-11,10.4-12.7
			c7-2.5,11.6,3.2,13.1,6.6v0.1c2.5,8-1.9,14.2-6.4,17.1C260.9,196.9,258.3,197.7,255.6,197.7z M259.8,173c-0.9,0-1.8,0.2-2.7,0.5
			c-4.3,1.5-8.1,6.2-9.1,11.3c-0.8,3.7,0.2,6.9,2.6,9.1c2.8,2.5,7.4,2.4,11.6-0.2c5-3.1,7.3-9.2,5.5-14.8
			C267.4,178.3,264.8,173,259.8,173z"></path><rect class="st2" x="240.4" y="183.4" width="6.3" height="2"></rect><path class="st0" d="M265.4,183.2c0,0-11.3-4.9-16,4.8c-0.4,0.7-0.1,1.5,0.6,1.9c0.1,0,0.1,0.1,0.2,0.1
			C253.6,191,262.4,192.4,265.4,183.2z"></path><path class="st2" d="M266,183.2c-1.6-0.4-3.3-0.7-5-0.8c-1.6-0.1-3.3,0-4.9,0.4c-1.6,0.4-3,1.1-4.3,2.2c-1.3,1.1-2.3,2.5-2.9,4
			c0.3-1.7,1.1-3.3,2.4-4.6c1.3-1.3,2.8-2.2,4.6-2.6c1.7-0.4,3.5-0.5,5.2-0.2C262.8,181.9,264.5,182.4,266,183.2z"></path><path class="st0" d="M221.4,183.3c0,0,11.3-4.9,16,4.8c0.4,0.7,0.1,1.6-0.6,1.9c-0.1,0-0.1,0.1-0.2,0.1
			C233.2,191,224.4,192.5,221.4,183.3z"></path><path class="st2" d="M220.8,183.3c1.5-0.8,3.2-1.3,4.9-1.5c1.8-0.3,3.5-0.2,5.3,0.3c1.7,0.4,3.3,1.3,4.6,2.6
			c1.2,1.2,2.1,2.8,2.4,4.6c-0.6-1.5-1.6-2.9-2.9-4c-1.2-1.1-2.7-1.8-4.3-2.2c-1.6-0.4-3.2-0.5-4.9-0.4
			C224.2,182.6,222.5,182.9,220.8,183.3z"></path><path class="st2" d="M262.9,187.6c0,0,0.9-4.6-3.4-5.1s-7.4,3.8-4.1,8.2C255.4,190.8,260.7,191.4,262.9,187.6z"></path><path class="st2" d="M228.1,190.3c0,0-2.4-7.6,2.9-7.3c7.8,0.5,5.2,7.1,5.2,7.1S231.9,192.5,228.1,190.3z"></path><polyline class="st3" points="242.6,185.1 228.1,200.6 247.1,198.9 		"></polyline><path class="st2" d="M242.6,185.1c-1,1.4-2.1,2.8-3.2,4.2s-2.3,2.7-3.4,4.1s-2.3,2.7-3.5,4s-2.4,2.6-3.6,3.9l-0.8-1.7
			c3.2-0.2,6.3-0.5,9.5-0.6c1.6-0.1,3.2-0.1,4.8-0.1s3.2,0,4.8,0c-1.6,0.3-3.1,0.6-4.7,0.9s-3.1,0.5-4.7,0.7
			c-3.1,0.4-6.3,0.8-9.5,1.1l-2.5,0.2l1.7-1.9c1.2-1.3,2.4-2.6,3.6-3.9s2.5-2.5,3.7-3.8s2.5-2.5,3.8-3.7S241.2,186.2,242.6,185.1z"></path></g><g id="device"><path class="st1" d="M153.9,417.6c0,0-34.5-117.7-26.8-123.1s229.7-10.6,233.6-2.3s-15.3,125.3-15.3,125.3H153.9z"></path><g><defs><path id="SVGID_3_" d="M153.9,417.6c0,0-34.5-117.7-26.8-123.1s229.7-10.6,233.6-2.3s-15.3,125.3-15.3,125.3H153.9z"></path></defs><clipPath id="SVGID_4_"><use xlink:href="#SVGID_3_" style="overflow: visible;"></use></clipPath><g class="st6"><path class="st0" d="M403.8,581.4c-0.3,0-0.5-0.2-0.5-0.5L389,183.7c0-0.3,0.2-0.5,0.5-0.5c0,0,0,0,0,0c0.3,0,0.5,0.2,0.5,0.5
					c0,0,0,0,0,0l14.2,397.2C404.3,581.1,404,581.3,403.8,581.4C403.8,581.4,403.8,581.4,403.8,581.4L403.8,581.4z"></path><path class="st0" d="M365.6,581.4c-0.3,0-0.5-0.2-0.5-0.5l-4.4-396.5c0-0.3,0.2-0.5,0.5-0.5c0.3,0,0.5,0.2,0.5,0.5l4.4,396.4
					C366.1,581.1,365.8,581.4,365.6,581.4C365.6,581.4,365.6,581.4,365.6,581.4L365.6,581.4z"></path><path class="st0" d="M330,581.4c-0.3,0-0.5-0.2-0.5-0.5V184.4c0-0.3,0.2-0.5,0.5-0.5s0.5,0.2,0.5,0.5v396.4
					C330.5,581.1,330.3,581.4,330,581.4z"></path><path class="st0" d="M296.3,581.4L296.3,581.4c-0.3,0-0.5-0.2-0.5-0.5l3.3-396.6c0-0.3,0.2-0.5,0.5-0.5c0,0,0,0,0,0l0,0
					c0.3,0,0.5,0.2,0.5,0.5l-3.3,396.6C296.8,581.1,296.6,581.4,296.3,581.4C296.3,581.4,296.3,581.4,296.3,581.4z"></path><path class="st0" d="M259.9,581.4L259.9,581.4c-0.3,0-0.5-0.2-0.5-0.5c0,0,0,0,0,0l14.2-396.4c0-0.3,0.2-0.5,0.5-0.5
					s0.5,0.2,0.5,0.5l-14.2,396.5C260.4,581.1,260.2,581.4,259.9,581.4z"></path><path class="st0" d="M229.1,581.5L229.1,581.5c-0.3,0-0.5-0.2-0.5-0.5c0,0,0,0,0,0l17.6-396.4c0-0.3,0.2-0.5,0.5-0.5
					c0,0,0,0,0.1,0c0.3,0,0.5,0.2,0.5,0.5c0,0,0,0,0,0L229.6,581C229.5,581.3,229.3,581.4,229.1,581.5z"></path><path class="st0" d="M209.5,581.5L209.5,581.5c-0.3,0-0.5-0.2-0.5-0.5c0,0,0,0,0,0l19.5-396.4c0-0.3,0.2-0.5,0.5-0.5
					c0.3,0,0.5,0.3,0.5,0.5c0,0,0,0,0,0L210,581C210,581.2,209.8,581.4,209.5,581.5z"></path><path class="st0" d="M192.6,581.5L192.6,581.5c-0.3,0-0.5-0.2-0.5-0.5c0,0,0,0,0,0l14.2-396.5c0-0.3,0.2-0.5,0.5-0.5
					c0,0,0,0,0,0c0.3,0,0.5,0.2,0.5,0.5c0,0,0,0,0,0L193.1,581C193.1,581.3,192.9,581.4,192.6,581.5z"></path><path class="st0" d="M513.4,285.7H55.5c-0.3,0-0.5-0.2-0.5-0.5c0-0.3,0.2-0.5,0.5-0.5h457.9c0.3,0,0.5,0.2,0.5,0.5
					C513.9,285.5,513.7,285.7,513.4,285.7z"></path><path class="st0" d="M60.9,269.5c-0.3,0-0.5-0.2-0.5-0.5c0,0,0,0,0,0c0-0.3,0.2-0.5,0.5-0.5c0,0,0,0,0,0l451.9-4.1
					c0.3,0,0.5,0.2,0.5,0.5c0,0,0,0,0,0c0,0.3-0.2,0.5-0.5,0.5L60.9,269.5z"></path><path class="st0" d="M512.8,243.2H162.9c-0.3,0-0.5-0.2-0.5-0.5s0.2-0.5,0.5-0.5h349.8c0.3,0,0.5,0.2,0.5,0.5
					C513.2,243,513,243.2,512.8,243.2z"></path><path class="st0" d="M512.9,221.5L512.9,221.5l-350-2.4c-0.3,0-0.5-0.2-0.5-0.5c0,0,0,0,0,0c0-0.3,0.2-0.5,0.5-0.5l0,0l350,2.4
					c0.3,0,0.5,0.2,0.5,0.5C513.4,221.3,513.2,221.5,512.9,221.5C512.9,221.5,512.9,221.5,512.9,221.5z"></path><path class="st0" d="M512.8,203.2L512.8,203.2l-349.8-10.1c-0.3,0-0.5-0.2-0.5-0.5c0,0,0,0,0,0c0-0.3,0.2-0.5,0.5-0.5
					c0,0,0,0,0,0l349.8,10.1c0.3,0,0.5,0.2,0.5,0.5c0,0,0,0,0,0C513.2,203,513,203.3,512.8,203.2z"></path><path class="st0" d="M512.7,183.6L512.7,183.6l-349.8-12.6c-0.3,0-0.5-0.2-0.5-0.5c0,0,0,0,0,0c0-0.3,0.3-0.5,0.5-0.5
					l349.8,12.6c0.3,0,0.5,0.2,0.5,0.5c0,0,0,0,0,0C513.2,183.4,512.9,183.6,512.7,183.6z"></path><path class="st0" d="M512.7,171.1L512.7,171.1l-349.8-13.9c-0.3,0-0.5-0.2-0.5-0.5c0-0.3,0.2-0.5,0.5-0.5l349.8,13.9
					c0.3,0,0.5,0.2,0.5,0.5S513,171.1,512.7,171.1L512.7,171.1z"></path><path class="st0" d="M512.7,155.2L512.7,155.2l-349.8-10.1c-0.3,0-0.5-0.2-0.5-0.5c0,0,0,0,0,0c0-0.3,0.2-0.5,0.5-0.5
					l349.8,10.1c0.3,0,0.5,0.2,0.5,0.5S513,155.2,512.7,155.2L512.7,155.2z"></path><path class="st0" d="M-40.7,377.4c-0.3,0-0.5-0.2-0.5-0.5c0,0,0,0,0,0c0-0.3,0.2-0.5,0.5-0.5c0,0,0,0,0,0l576.1-10.2
					c0.3,0,0.5,0.2,0.5,0.5c0,0.3-0.2,0.5-0.5,0.5c0,0,0,0,0,0L-40.7,377.4z"></path><path class="st0" d="M-40.7,350.1c-0.3,0-0.5-0.2-0.5-0.5c0-0.3,0.2-0.5,0.5-0.5c0,0,0,0,0,0l575-3.2c0.3,0,0.5,0.2,0.5,0.4
					c0,0,0,0,0,0.1c0,0.3-0.2,0.5-0.5,0.5L-40.7,350.1L-40.7,350.1z"></path><path class="st0" d="M534.3,324.7h-575c-0.3,0-0.5-0.2-0.5-0.5s0.2-0.5,0.5-0.5h575c0.3,0,0.5,0.2,0.5,0.5
					S534.6,324.7,534.3,324.7z"></path><path class="st0" d="M534.5,303L534.5,303l-575.2-2.4c-0.3,0-0.5-0.2-0.5-0.5c0,0,0,0,0,0c0-0.3,0.2-0.5,0.5-0.5l0,0l575.2,2.4
					c0.3,0,0.5,0.2,0.5,0.5C535,302.8,534.8,303,534.5,303z"></path><path class="st0" d="M534.3,284.8L534.3,284.8l-575-10.1c-0.3,0-0.5-0.2-0.5-0.5c0,0,0,0,0,0c0-0.3,0.2-0.5,0.5-0.5l575,10.1
					c0.3,0,0.5,0.2,0.5,0.5S534.6,284.8,534.3,284.8L534.3,284.8z"></path><path class="st0" d="M534.2,265.1L534.2,265.1l-575-12.6c-0.3,0-0.5-0.2-0.5-0.5c0,0,0,0,0,0c0-0.3,0.2-0.5,0.5-0.5l575,12.6
					c0.3,0,0.5,0.2,0.5,0.5S534.5,265.1,534.2,265.1L534.2,265.1z"></path><path class="st0" d="M534.2,252.6L534.2,252.6l-575-13.9c-0.3,0-0.5-0.2-0.5-0.5c0,0,0,0,0,0c0-0.3,0.2-0.5,0.5-0.5l575,13.9
					c0.3,0,0.5,0.2,0.5,0.5C534.7,252.4,534.4,252.6,534.2,252.6z"></path><path class="st0" d="M534.2,236.7L534.2,236.7l-575-10.1c-0.3,0-0.5-0.2-0.5-0.5c0-0.3,0.2-0.5,0.5-0.5l0,0l575,10.1
					c0.3,0,0.5,0.2,0.5,0.5C534.7,236.5,534.4,236.7,534.2,236.7z"></path><path class="st0" d="M185.2,524.1c-0.3,0-0.5-0.2-0.5-0.5l-14.2-327.3c0-0.3,0.2-0.5,0.5-0.5s0.5,0.2,0.5,0.5l14.2,327.2
					C185.7,523.9,185.5,524.1,185.2,524.1C185.2,524.1,185.2,524.1,185.2,524.1L185.2,524.1z"></path><path class="st0" d="M147,524.1c-0.3,0-0.5-0.2-0.5-0.5L142.1,197c0-0.3,0.2-0.5,0.5-0.5c0,0,0,0,0,0c0.3,0,0.5,0.2,0.5,0.4
					c0,0,0,0,0,0.1l4.4,326.6C147.5,523.9,147.3,524.1,147,524.1C147,524.1,147,524.1,147,524.1L147,524.1z"></path><path class="st0" d="M111.5,524.1c-0.3,0-0.5-0.2-0.5-0.5V197c0-0.3,0.2-0.5,0.5-0.5s0.5,0.2,0.5,0.5v326.6
					C112,523.9,111.8,524.1,111.5,524.1z"></path><path class="st0" d="M77.8,524.1L77.8,524.1c-0.3,0-0.5-0.2-0.5-0.5c0,0,0,0,0,0l3.3-326.8c0-0.3,0.2-0.5,0.5-0.5l0,0
					c0.3,0,0.5,0.2,0.5,0.5c0,0,0,0,0,0l-3.3,326.8C78.3,523.9,78,524.1,77.8,524.1z"></path><path class="st0" d="M41.4,524.1L41.4,524.1c-0.3,0-0.5-0.2-0.5-0.5c0,0,0,0,0,0L55,197c0-0.3,0.2-0.5,0.5-0.5s0.5,0.2,0.5,0.5
					L41.9,523.7C41.8,523.9,41.6,524.1,41.4,524.1z"></path><path class="st0" d="M10.5,524.2L10.5,524.2c-0.3,0-0.5-0.3-0.5-0.5c0,0,0,0,0,0L27.6,197c0-0.3,0.2-0.5,0.5-0.5c0,0,0,0,0,0
					c0.3,0,0.5,0.3,0.5,0.5c0,0,0,0,0,0L11,523.7C11,524,10.8,524.2,10.5,524.2z"></path><path class="st0" d="M-9,524.2L-9,524.2c-0.3,0-0.5-0.3-0.5-0.5c0,0,0,0,0,0L10,197c0-0.3,0.2-0.5,0.5-0.5c0,0,0,0,0,0
					c0.3,0,0.5,0.3,0.5,0.5L-8.5,523.7C-8.6,524-8.8,524.2-9,524.2z"></path><path class="st0" d="M545.2,485.2h-575c-0.3,0-0.5-0.2-0.5-0.5s0.2-0.5,0.5-0.5h575c0.3,0,0.5,0.2,0.5,0.5
					S545.5,485.2,545.2,485.2z"></path><path class="st0" d="M545.4,463.5L545.4,463.5l-575.2-2.4c-0.3,0-0.5-0.2-0.5-0.5c0-0.3,0.2-0.5,0.5-0.5l0,0l575.2,2.4
					c0.3,0,0.5,0.2,0.5,0.5c0,0,0,0,0,0C545.9,463.3,545.7,463.5,545.4,463.5C545.4,463.5,545.4,463.5,545.4,463.5z"></path><path class="st0" d="M545.2,445.2L545.2,445.2l-575-10.1c-0.3,0-0.5-0.2-0.5-0.5c0,0,0,0,0,0c0-0.3,0.2-0.5,0.5-0.5l575,10.1
					c0.3,0,0.5,0.2,0.5,0.5S545.5,445.2,545.2,445.2L545.2,445.2z"></path><path class="st0" d="M545.1,425.6L545.1,425.6l-575-12.6c-0.3,0-0.5-0.2-0.5-0.5c0,0,0,0,0,0c0-0.3,0.2-0.5,0.5-0.5c0,0,0,0,0,0
					l575,12.6c0.3,0,0.5,0.2,0.5,0.5c0,0,0,0,0,0C545.6,425.4,545.4,425.6,545.1,425.6C545.1,425.6,545.1,425.6,545.1,425.6z"></path><path class="st0" d="M545.1,413.1L545.1,413.1l-575-14c-0.3,0-0.5-0.2-0.5-0.5c0,0,0,0,0,0c0-0.3,0.2-0.5,0.5-0.5c0,0,0,0,0,0
					l575,14c0.3,0,0.5,0.2,0.5,0.5S545.4,413.1,545.1,413.1L545.1,413.1z"></path><path class="st0" d="M545.1,397.2L545.1,397.2l-575-10.1c-0.3,0-0.5-0.2-0.5-0.5c0,0,0,0,0,0c0-0.3,0.2-0.5,0.5-0.5c0,0,0,0,0,0
					l575,10.1c0.3,0,0.5,0.2,0.5,0.5c0,0,0,0,0,0C545.6,397,545.3,397.2,545.1,397.2C545.1,397.2,545.1,397.2,545.1,397.2z"></path></g></g><path class="st0" d="M247.3,364.9l10.9-13.5c0,0,4.7,8.2,0,13.5S247.3,364.9,247.3,364.9z"></path></g></g><g id="table"><path class="st0" d="M56.5,430.3c0,0-3.3-16.8,0-16.8h388.4v16.8H56.5z"></path></g><g id="coffee"><polygon class="st3" points="383.6,367.3 434.6,367.3 423.4,413.1 396.1,413.1 	"></polygon><path class="st3" d="M422.7,395.1c3.5-0.6,7-1,10.3-1.8c1.6-0.3,3.1-0.8,4.6-1.5c1.2-0.4,2.1-1.3,2.7-2.4c0.2-0.5,0.3-1,0.1-1.6
		c0-0.6-0.2-1.2-0.5-1.7c-0.7-1.1-1.8-2-3.1-2.5c-3.2-1.2-6.5-2-9.9-2.3c3.5-1.3,7.3-1.5,10.9-0.7c2.1,0.5,4,1.7,5.3,3.4
		c0.7,1,1.1,2.1,1.2,3.2c0.2,1.2,0.1,2.5-0.3,3.6c-1,2.1-2.8,3.7-5,4.4c-1.8,0.6-3.7,1-5.6,1.1C429.8,396.6,426.2,396.2,422.7,395.1
		z"></path><path class="st2" d="M383.6,367.3c0,0,47.8-2.8,51.1,0C434.6,367.3,409.2,380.8,383.6,367.3z"></path><path class="st1" d="M410.4,321.8c-3,1.3-5.7,3.2-8,5.4c-2.9,2.6-4.3,6.5-3.8,10.4c0.1,0.8,0.3,1.5,0.4,2.4l0.2,1.2l0.1,1.3
		c0.1,0.9,0.1,1.7,0.1,2.6c-0.1,1.7-0.5,3.4-1.3,5c-0.8,1.6-2.2,2.7-3.9,3.1c1.4-0.7,2.5-1.9,3-3.5c0.5-1.5,0.7-3.1,0.6-4.6
		c-0.1-0.8-0.1-1.6-0.2-2.4l-0.2-1.2l-0.3-1.2l-0.2-1.2c-0.1-0.4-0.2-0.9-0.2-1.3c-0.1-0.9-0.2-1.8-0.1-2.6c0.1-1.8,0.6-3.5,1.5-5.1
		c0.9-1.5,2-2.9,3.3-4C403.9,323.9,407,322.4,410.4,321.8z"></path><path class="st1" d="M418.5,327.2c-3,1.3-5.7,3.2-8,5.4c-2.2,2.1-3.6,5-3.9,8.1c-0.1,0.8-0.1,1.5,0,2.3c0.1,0.8,0.3,1.5,0.4,2.4
		l0.2,1.2l0.1,1.3c0.1,0.9,0.1,1.7,0.1,2.6c-0.1,1.7-0.5,3.4-1.2,5c-0.8,1.6-2.2,2.7-3.9,3.1c1.4-0.7,2.5-1.9,3-3.5
		c0.5-1.5,0.7-3.1,0.6-4.6c-0.1-0.8-0.1-1.6-0.2-2.4l-0.2-1.2l-0.3-1.2l-0.2-1.2c-0.1-0.4-0.2-0.9-0.2-1.3c-0.1-0.9-0.2-1.8-0.1-2.6
		c0.1-1.8,0.6-3.5,1.5-5.1c0.9-1.5,2-2.9,3.3-4C412,329.3,415.1,327.8,418.5,327.2z"></path></g><g id="screen-1"><path class="st1" d="M331.2,150c0,0-2.7-38.6-2.1-40.3s64.5-1.4,64.5-1.4s0.6,42-1.1,41.8S331.2,150,331.2,150z"></path><path class="st0" d="M349.9,120.8c0,0-8.7,10.9-8.7,11.5s11.2,9.1,11.7,9.1s-9.9-10.1-9.9-10.1S353.9,118.8,349.9,120.8z"></path><path class="st0" d="M355.6,142.8c0,0,9.4-24.1,10.1-24.4c0.8-0.1,1.7-0.1,2.5,0l-12.5,25.9V142.8z"></path><path class="st0" d="M372.9,121.1c0,0,8.7,10.9,8.7,11.5s-11.2,9.1-11.8,9.1s10-10.1,10-10.1S368.9,119.1,372.9,121.1z"></path></g></svg>